<svg width="18" height="19" viewBox="0 0 18 19" fill="none" xmlns="http://www.w3.org/2000/svg">
<path fill-rule="evenodd" clip-rule="evenodd" d="M13 0.837402H5C2.23858 0.837402 0 3.07598 0 5.8374V13.8374C0 16.5988 2.23858 18.8374 5 18.8374H13C15.7614 18.8374 18 16.5988 18 13.8374V5.8374C18 3.07598 15.7614 0.837402 13 0.837402ZM16.25 13.8374C16.2445 15.63 14.7926 17.0819 13 17.0874H5C3.20735 17.0819 1.75549 15.63 1.75 13.8374V5.8374C1.75549 4.04475 3.20735 2.59289 5 2.5874H13C14.7926 2.59289 16.2445 4.04475 16.25 5.8374V13.8374ZM13.75 6.0874C14.3023 6.0874 14.75 5.63968 14.75 5.0874C14.75 4.53512 14.3023 4.0874 13.75 4.0874C13.1977 4.0874 12.75 4.53512 12.75 5.0874C12.75 5.63968 13.1977 6.0874 13.75 6.0874ZM9 5.3374C6.51472 5.3374 4.5 7.35212 4.5 9.8374C4.5 12.3227 6.51472 14.3374 9 14.3374C11.4853 14.3374 13.5 12.3227 13.5 9.8374C13.5027 8.6431 13.0294 7.49697 12.1849 6.65248C11.3404 5.80799 10.1943 5.33474 9 5.3374ZM6.25 9.8374C6.25 11.3562 7.4812 12.5874 9 12.5874C10.5188 12.5874 11.75 11.3562 11.75 9.8374C11.75 8.3186 10.5188 7.0874 9 7.0874C7.4812 7.0874 6.25 8.3186 6.25 9.8374Z" fill="white"/>
</svg>
