<svg width="107" height="31" viewBox="0 0 107 31" fill="none" xmlns="http://www.w3.org/2000/svg">
<path d="M15.8908 0.233131C16.3109 0.184837 16.7976 0.278767 17.2023 0.402077C18.118 0.68101 18.8623 1.27791 19.3039 2.13059C19.7627 3.00463 19.8505 4.02692 19.548 4.96653C19.1637 6.12544 18.3391 6.70828 17.3097 7.24387L17.3215 10.6238C18.0569 10.848 18.7728 11.102 19.4406 11.489C20.9756 12.3788 22.0257 13.8794 22.466 15.5866C22.9313 17.377 22.6671 19.2799 21.7306 20.8757C20.8717 22.3221 19.5021 23.3903 17.8625 23.7995C15.7205 24.3348 13.9037 23.7554 12.0627 22.6609C11.249 23.5309 10.4449 24.4104 9.65153 25.2995C10.0063 26.1364 10.1241 27.0148 9.88884 27.904C9.65891 28.7733 9.04982 29.5183 8.27067 29.9587C7.39757 30.4529 6.4027 30.5422 5.44548 30.2683C4.4955 29.9964 3.69689 29.4084 3.23259 28.5241C2.77558 27.6547 2.73707 26.6359 3.03337 25.7077C3.37041 24.6531 4.05664 24.0033 5.02165 23.5212C6.06056 23.1148 6.91963 23.2487 7.93376 23.614C8.7781 22.7255 9.5729 21.7916 10.4259 20.9109C9.4885 19.0724 9.18462 17.5061 9.67204 15.4802C8.61076 14.9847 7.58748 14.4082 6.52556 13.9118C5.95808 14.5025 5.26396 14.9076 4.44939 15.0447C3.47808 15.2081 2.45385 14.943 1.65544 14.3728C0.864258 13.7996 0.34378 12.9254 0.215987 11.9568C0.0849315 11.0177 0.332356 9.98308 0.933761 9.24192C1.55403 8.47743 2.51644 8.0156 3.48845 7.9138C4.4434 7.82078 5.39617 8.11239 6.13591 8.72337C7.08179 9.51561 7.3552 10.5008 7.46989 11.6745C8.47644 12.2916 9.62911 12.7671 10.6779 13.3181C12.0426 11.7048 13.0403 11.1959 15.0295 10.5827L15.0304 7.22825C14.6745 7.08576 14.3191 6.91232 14.009 6.6843C13.2242 6.10375 12.7084 5.2293 12.5812 4.26145C12.4636 3.2986 12.736 2.32849 13.3371 1.56712C13.994 0.743058 14.8722 0.367929 15.8908 0.233131ZM20.2765 16.9197C20.0742 14.612 18.0461 12.9008 15.7375 13.0886C13.4084 13.2783 11.6788 15.3274 11.883 17.655C12.0872 19.9835 14.1471 21.7007 16.4738 21.4822C18.7798 21.2648 20.4788 19.2269 20.2765 16.9197Z" fill="#764191"/>
<path d="M98.917 11.6787C99.603 11.6796 100.289 11.6886 100.975 11.7061L100.971 15.332C101.499 14.9211 102.075 14.6147 102.744 14.5146C103.648 14.3778 104.57 14.6123 105.299 15.1641C106.179 15.8294 106.641 16.9491 106.774 18.0195C106.944 19.3775 106.625 20.6831 105.787 21.7656C105.231 22.3021 104.564 22.6776 103.795 22.8037C102.666 22.9892 101.771 22.5943 100.891 21.9375L100.887 22.7295L98.918 22.7256L98.917 11.6787ZM102.443 16.4297C101.832 16.6328 101.406 16.923 101.108 17.5117C100.777 18.1652 100.754 18.9732 101.013 19.6543C101.21 20.1758 101.58 20.6272 102.095 20.8594C102.469 21.0286 102.821 21.0338 103.224 21.0098C103.862 20.7683 104.292 20.4586 104.581 19.8193C104.883 19.1517 104.878 18.3467 104.592 17.6748C104.372 17.158 103.98 16.7417 103.452 16.5371C103.122 16.4097 102.791 16.3929 102.443 16.4297Z" fill="#764191"/>
<path d="M39.9814 11.6577C41.1884 15.3777 42.733 18.9966 43.9102 22.7271L41.6855 22.729C41.4248 21.9325 41.1733 21.0317 40.7754 20.2954C40.5154 20.1843 40.2077 20.2215 39.9297 20.2251C38.8568 20.2357 37.7837 20.2328 36.7109 20.2144C36.3741 21.0362 36.1026 21.8814 35.8359 22.728L33.5703 22.7261C34.7536 19.0127 36.1641 15.3468 37.4414 11.6626C38.2864 11.6809 39.1361 11.6611 39.9814 11.6577ZM38.7129 14.4077C38.2445 15.7392 37.8077 17.0891 37.2949 18.4038L38.9238 18.4028L40.1895 18.3892C40.0117 17.8887 38.9786 14.6296 38.7129 14.4077Z" fill="#764191"/>
<path d="M86.8819 11.6816L89.0094 11.6944C88.9804 14.2589 89.003 16.827 89.0023 19.3914C89.0016 20.4499 89.1092 21.6067 88.9903 22.651L88.8735 22.731H86.8797L86.8755 17.9952C85.2818 17.9506 83.6761 17.9903 82.081 17.9924L82.0817 22.7331L79.9414 22.7289L79.9499 11.6846L82.0817 11.6896L82.0831 16.2054H86.8847L86.8819 11.6816Z" fill="#764191"/>
<path d="M90.2897 14.7432C90.9955 14.7633 91.7035 14.7559 92.4094 14.7598C92.4009 15.8885 92.2225 19.0065 92.4958 19.9396C92.6034 20.3078 92.8186 20.6448 93.1669 20.8239C93.6909 21.0929 94.2233 20.9372 94.7436 20.7545C94.9744 20.4968 95.1727 20.2554 95.2867 19.9226C95.6605 18.8344 95.4608 16.0414 95.4552 14.7468C96.1278 14.7648 96.8025 14.7507 97.4751 14.7473C97.4595 15.5225 97.4723 16.3005 97.4708 17.0765L97.4815 22.7277C96.8202 22.7376 96.1589 22.7327 95.4984 22.7128L95.4375 22.6413C95.4474 22.4735 95.4495 22.3369 95.4198 22.1698C94.8003 22.4381 94.2488 22.8452 93.5443 22.8594C92.7273 22.8757 91.8409 22.6222 91.2546 22.0346C90.81 21.59 90.5389 20.9917 90.3994 20.3849C90.0992 19.0794 90.2762 16.188 90.2897 14.7432Z" fill="#764191"/>
<path d="M61.6955 14.5205C62.7504 14.4379 63.8499 14.5125 64.7024 15.2231C65.2999 15.7207 65.4932 16.3181 65.5576 17.0608L63.651 17.0587C63.5412 16.8548 63.4315 16.6183 63.2595 16.459C62.9848 16.2056 62.5869 16.0739 62.2152 16.0937C61.9263 16.1093 61.5574 16.2247 61.3776 16.4689C61.2686 16.6176 61.2084 16.7705 61.2502 16.956C61.4668 17.9338 63.9526 17.8127 64.7441 18.3302C65.2475 18.6602 65.6341 19.2513 65.7459 19.8411C65.8578 20.4443 65.7141 21.0673 65.3502 21.5608C64.7427 22.3984 63.8067 22.6993 62.8325 22.8487C61.9306 22.9032 60.8849 22.661 60.1627 22.1116C59.4859 21.5962 59.2423 20.964 59.1503 20.1498C59.7924 20.1512 60.4353 20.1448 61.0774 20.1321C61.1149 20.2532 61.1567 20.37 61.2176 20.4818C61.4973 20.998 62.0559 21.1127 62.5734 21.2649C62.9154 21.1863 63.3784 21.0985 63.6212 20.8224C63.7678 20.6553 63.8188 20.3657 63.7572 20.1533C63.52 19.3363 61.1383 19.24 60.3121 18.7317C59.8229 18.4301 59.4632 17.9911 59.3329 17.4247C59.2154 16.9114 59.26 16.3344 59.5489 15.8848C60.07 15.0709 60.7893 14.7367 61.6955 14.5205Z" fill="#764191"/>
<path d="M74.5252 14.5183C75.1256 14.4696 75.7139 14.473 76.2994 14.6313C76.9749 14.8141 77.692 15.1914 78.0333 15.831C78.1976 16.1376 78.3236 16.6891 78.2131 17.0297C77.6659 17.1479 76.9975 17.0679 76.4354 17.0615C76.3525 16.7833 76.2824 16.5688 76.0566 16.3762C75.7706 16.1369 75.3989 16.0236 75.0279 16.064C74.7376 16.0937 74.3645 16.2367 74.2023 16.4966C74.1054 16.6516 74.0657 16.8109 74.1266 16.9893C74.4778 18.0237 76.5826 17.778 77.4011 18.2453C77.9222 18.5434 78.3583 19.0673 78.5062 19.6535C78.6655 20.2829 78.5601 20.9824 78.1969 21.524C77.6545 22.3325 76.7929 22.637 75.8838 22.8133C74.9911 22.9237 73.9574 22.734 73.2112 22.2193C72.4451 21.6911 72.215 21.0284 72.043 20.1625L73.9546 20.1484C74.0707 20.4408 74.1762 20.6688 74.424 20.8712C74.7539 21.1417 75.1454 21.2642 75.5709 21.2075C75.9008 21.1636 76.2258 21.0121 76.4233 20.736C76.5522 20.5548 76.6166 20.3346 76.555 20.1144C76.3157 19.2641 74.2052 19.3172 73.3676 18.8662C72.8019 18.5611 72.3538 18.0541 72.1747 17.4318C72.0224 16.9051 72.0862 16.3564 72.3644 15.8827C72.8267 15.0982 73.6749 14.7145 74.5252 14.5183Z" fill="#764191"/>
<path d="M50.9954 12.5503C51.6297 12.5722 52.269 12.5587 52.9041 12.5614C52.897 13.278 52.9076 13.9947 52.9353 14.7108L54.8185 14.7119L54.8143 16.3534L53.0209 16.3526C53.0216 17.3856 52.7852 20.0505 53.2595 20.8484C53.6298 21.1401 54.369 21.0311 54.8185 21.0261L54.8122 22.3862C54.8164 22.5263 54.8157 22.5971 54.7442 22.7196C54.4936 22.84 54.2366 22.8669 53.9597 22.869C53.2312 22.8754 52.2251 22.7437 51.7012 22.1978C50.6492 21.1026 50.9854 17.8798 50.9904 16.3512L49.7752 16.3534L49.7788 14.7082L50.989 14.7164L50.9954 12.5503Z" fill="#764191"/>
<path d="M67.366 12.5415L69.2393 12.5523C69.2252 13.27 69.2549 13.9912 69.2684 14.709L71.1821 14.7052L71.1792 16.3543L69.3781 16.3529C69.4001 17.3363 69.1593 20.0826 69.6047 20.826C70.0833 21.112 70.6829 21.0356 71.221 21.0342C71.2146 21.5078 71.2239 21.9829 71.226 22.4572L71.2033 22.6371C71.0178 22.8332 70.7325 22.8247 70.4797 22.8311C69.7102 22.8495 68.6475 22.7277 68.0896 22.1436C67.0481 21.0533 67.3724 17.8758 67.3816 16.3522L66.1001 16.3529C66.0838 15.8071 66.0902 15.2594 66.0859 14.7136L67.3625 14.7201L67.366 12.5415Z" fill="#764191"/>
<path d="M26.9502 11.3145C27.0487 11.3096 27.1443 11.3082 27.2423 11.3223C27.5485 11.3667 27.8502 11.5146 28.0189 11.7834C28.1978 12.0687 28.2223 12.4485 28.2468 12.7789C28.3682 14.4143 28.278 16.1155 28.2776 17.7566C28.2772 19.0969 28.4258 20.9143 28.1769 22.205C28.0986 22.6106 27.8296 22.8046 27.5074 23.0241C27.3847 23.039 27.2563 23.056 27.1325 23.0489C26.8561 23.0333 26.5942 22.9101 26.4154 22.6991C26.2386 22.4903 26.2437 22.0711 26.2281 21.8092C26.1157 19.928 26.2107 17.9867 26.2124 16.0999C26.2134 15.0277 26.066 12.9753 26.2915 12.0184C26.3721 11.6761 26.6806 11.4967 26.9502 11.3145Z" fill="#764191"/>
<path d="M48.6737 14.6823L48.9428 14.6792C49.2619 15.0359 49.1035 16.166 49.0933 16.634C48.4191 16.6269 47.7815 16.6 47.2534 17.0899C46.2624 18.0089 46.5965 21.3768 46.5866 22.7284C46.0554 22.7234 45.0206 22.9174 44.6148 22.5797L44.5936 22.2448C44.6033 19.7399 44.5403 17.2372 44.5563 14.7327C45.1994 14.7528 45.8446 14.7391 46.488 14.7356L46.4654 15.8417C46.5847 15.6705 46.7032 15.487 46.8417 15.3308C47.3293 14.7809 47.9905 14.7311 48.6737 14.6823Z" fill="#764191"/>
<path d="M55.9891 14.7153L58.0097 14.7161L58.0147 22.7325L55.9707 22.7297L55.9891 14.7153Z" fill="#764191"/>
<path d="M24.1281 13.9414C24.4599 14.0026 24.7534 14.1273 24.9468 14.4154C25.245 14.86 25.253 19.2153 25.1036 19.8369C25.0219 20.1768 24.7279 20.3424 24.4492 20.506C24.1299 20.4869 23.7103 20.4586 23.4971 20.1817C23.1799 19.7704 23.2062 15.1415 23.3868 14.561C23.4917 14.2237 23.8385 14.0811 24.1281 13.9414Z" fill="#764191"/>
<path d="M56.866 11.4125C57.4664 11.3419 58.0144 11.7616 58.1021 12.3595C58.1906 12.9576 57.7871 13.5173 57.1924 13.6231C56.7909 13.6943 56.3831 13.5419 56.1275 13.2252C55.8713 12.9086 55.8082 12.4778 55.9619 12.1007C56.1155 11.7237 56.4617 11.46 56.866 11.4125Z" fill="#764191"/>
</svg>
