<svg width="21" height="15" viewBox="0 0 21 15" fill="none" xmlns="http://www.w3.org/2000/svg">
<path d="M20.5933 2.79773C20.4794 2.37514 20.2568 1.98974 19.9477 1.6799C19.6386 1.37006 19.2537 1.14659 18.8313 1.03173C17.2653 0.601734 11.0003 0.594734 11.0003 0.594734C11.0003 0.594734 4.73633 0.587734 3.16933 0.998734C2.74725 1.11888 2.36315 1.34551 2.0539 1.65687C1.74464 1.96823 1.52062 2.35386 1.40333 2.77673C0.99033 4.34273 0.98633 7.59073 0.98633 7.59073C0.98633 7.59073 0.98233 10.8547 1.39233 12.4047C1.62233 13.2617 2.29733 13.9387 3.15533 14.1697C4.73733 14.5997 10.9853 14.6067 10.9853 14.6067C10.9853 14.6067 17.2503 14.6137 18.8163 14.2037C19.2388 14.0891 19.6241 13.8661 19.934 13.5569C20.2439 13.2477 20.4677 12.863 20.5833 12.4407C20.9973 10.8757 21.0003 7.62873 21.0003 7.62873C21.0003 7.62873 21.0203 4.36373 20.5933 2.79773ZM8.99633 10.5997L9.00133 4.59973L14.2083 7.60473L8.99633 10.5997Z" fill="white"/>
</svg>
