<svg width="24" height="24" viewBox="0 0 24 24" fill="none" xmlns="http://www.w3.org/2000/svg">
<path d="M13.1251 2.35464C13.4134 2.32373 13.7478 2.3842 14.0255 2.46304C14.6537 2.64137 15.1639 3.02337 15.4669 3.56851C15.7816 4.12726 15.8424 4.78037 15.6348 5.38101C15.3712 6.12172 14.8057 6.49375 14.0997 6.83609L14.1075 8.99722C14.6122 9.1406 15.1033 9.30346 15.5616 9.55093C16.6146 10.1198 17.3348 11.0788 17.6368 12.1701C17.9561 13.3146 17.7744 14.5308 17.1319 15.5509C16.5426 16.4755 15.6034 17.1584 14.4786 17.4201C13.009 17.7622 11.7622 17.3913 10.4991 16.6916C9.94076 17.2478 9.38922 17.8106 8.84479 18.3791C9.0882 18.914 9.16929 19.4756 9.00787 20.0441C8.8501 20.5998 8.43208 21.0761 7.89752 21.3576C7.29849 21.6735 6.61578 21.7309 5.95905 21.5558C5.30727 21.382 4.75905 21.0059 4.44049 20.4406C4.12694 19.8848 4.10049 19.2332 4.30377 18.6398C4.53504 17.9655 5.00675 17.5505 5.66901 17.2423C6.38158 16.9827 6.97051 17.0675 7.66608 17.3009C8.24534 16.733 8.79081 16.1364 9.37604 15.5734C8.73292 14.3982 8.52503 13.3968 8.85944 12.1017C8.1312 11.7849 7.42893 11.4161 6.70026 11.0988C6.31097 11.4764 5.83521 11.7357 5.27643 11.8234C4.60988 11.9279 3.90634 11.7584 3.35846 11.3937C2.81578 11.0273 2.45884 10.4688 2.37116 9.84976C2.28115 9.24935 2.45065 8.5873 2.86334 8.11343C3.28888 7.62481 3.94948 7.32991 4.61627 7.2648C5.2714 7.20534 5.92517 7.39188 6.43268 7.78238C7.08164 8.28883 7.26903 8.91878 7.34772 9.6691C8.03833 10.0636 8.82927 10.3676 9.54889 10.7199C10.4852 9.68853 11.1695 9.36283 12.5342 8.97085L12.5352 6.8273C12.291 6.73621 12.0469 6.62543 11.834 6.47964C11.2956 6.10852 10.9428 5.54856 10.8555 4.92984C10.7749 4.31456 10.961 3.69477 11.3731 3.20816C11.8238 2.68143 12.4263 2.44086 13.1251 2.35464ZM13.0206 10.5724C11.4226 10.6935 10.2353 12.0035 10.3751 13.4914C10.5151 14.9799 11.9291 16.0774 13.5255 15.9377C15.1076 15.7987 16.2726 14.4966 16.1339 13.0216C15.995 11.5465 14.6045 10.4524 13.0206 10.5724Z" fill="white"/>
<path d="M20.7129 9.43923C20.7804 9.43611 20.846 9.4352 20.9132 9.44426C21.1233 9.47263 21.3303 9.56718 21.446 9.73903C21.5688 9.92138 21.5856 10.1642 21.6024 10.3754C21.6857 11.4208 21.6238 12.5084 21.6235 13.5575C21.6233 14.4142 21.7252 15.5761 21.5545 16.4011C21.5007 16.6605 21.3162 16.7845 21.0951 16.9248C21.011 16.9343 20.9228 16.9452 20.8379 16.9406C20.6483 16.9307 20.4686 16.8519 20.3459 16.717C20.2246 16.5835 20.2281 16.3156 20.2174 16.1481C20.1403 14.9456 20.2055 13.7046 20.2067 12.4984C20.2073 11.813 20.1062 10.5009 20.2609 9.88925C20.3162 9.67042 20.5279 9.55573 20.7129 9.43923Z" fill="white"/>
<path d="M18.7765 11.1188C19.0042 11.1579 19.2056 11.2376 19.3382 11.4218C19.5428 11.706 19.5483 14.4902 19.4459 14.8876C19.3898 15.1049 19.1881 15.2108 18.9968 15.3153C18.7778 15.3031 18.4899 15.285 18.3436 15.108C18.126 14.8451 18.144 11.886 18.2679 11.5149C18.3399 11.2993 18.5778 11.2081 18.7765 11.1188Z" fill="white"/>
</svg>
