<svg width="119" height="52" viewBox="0 0 119 52" fill="none" xmlns="http://www.w3.org/2000/svg">
  <path d="M21.8907 11.1379C22.3107 11.0896 22.7975 11.1836 23.2022 11.3069C24.1179 11.5858 24.8622 12.1836 25.3038 13.0364C25.7625 13.9105 25.8505 14.9327 25.5479 15.8723C25.1636 17.0309 24.3397 17.6132 23.3106 18.1487L23.3223 21.5286C24.0578 21.7528 24.7736 22.0077 25.4414 22.3948C26.9763 23.2847 28.0267 24.7852 28.4668 26.4924C28.9321 28.2827 28.6669 30.1848 27.7305 31.7805C26.8716 33.2269 25.502 34.2961 23.8623 34.7053C21.7206 35.2404 19.9043 34.6601 18.0635 33.5657C17.2498 34.4358 16.4459 35.3161 15.6524 36.2053C16.007 37.042 16.1238 37.9198 15.8887 38.8088C15.6588 39.6781 15.0497 40.4231 14.2705 40.8635C13.3974 41.3577 12.4026 41.448 11.4454 41.1741C10.4954 40.9022 9.69676 40.3132 9.23246 39.4289C8.77564 38.5596 8.73699 37.5406 9.03324 36.6125C9.37036 35.5579 10.0573 34.9081 11.0225 34.426C12.0612 34.0198 12.9197 34.1536 13.9336 34.5188C14.778 33.6303 15.5737 32.6974 16.4268 31.8166C15.4893 29.9781 15.1856 28.4119 15.6729 26.386C14.6115 25.8905 13.5875 25.313 12.5254 24.8166C11.958 25.4073 11.2647 25.8123 10.4502 25.9495C9.47873 26.113 8.45386 25.848 7.65531 25.2776C6.86425 24.7044 6.34368 23.831 6.21586 22.8625C6.08467 21.9233 6.33212 20.888 6.93363 20.1467C7.55385 19.3823 8.51645 18.9214 9.48832 18.8196C10.4434 18.7265 11.397 19.018 12.1368 19.6291C13.0823 20.4213 13.3551 21.4058 13.4698 22.5793C14.4764 23.1965 15.6289 23.6728 16.6778 24.2239C18.0425 22.6105 19.0402 22.1017 21.0293 21.4885L21.0313 18.134C20.6752 17.9915 20.3191 17.8182 20.0088 17.5901C19.2241 17.0096 18.7094 16.135 18.5821 15.1672C18.4644 14.2043 18.7359 13.2334 19.337 12.4719C19.9939 11.6479 20.8721 11.2727 21.8907 11.1379ZM26.2774 27.8245C26.075 25.5169 24.0469 23.8056 21.7383 23.9934C19.4093 24.1831 17.6799 26.2323 17.8838 28.5598C18.088 30.8883 20.1479 32.6056 22.4746 32.387C24.7807 32.1696 26.4797 30.1318 26.2774 27.8245Z" fill="white"/>
  <path d="M104.916 22.584C105.602 22.5849 106.288 22.5948 106.974 22.6123L106.97 26.2373C107.498 25.8264 108.074 25.5209 108.743 25.4209C109.647 25.284 110.569 25.5176 111.298 26.0693C112.178 26.7347 112.64 27.8553 112.773 28.9258C112.943 30.2835 112.624 31.5885 111.786 32.6709C111.23 33.2076 110.562 33.583 109.793 33.709C108.664 33.8943 107.77 33.4996 106.89 32.8428L106.886 33.6348L104.917 33.6318L104.916 22.584ZM108.442 27.335C107.831 27.5382 107.405 27.8289 107.107 28.418C106.776 29.0714 106.753 29.8785 107.012 30.5596C107.209 31.0811 107.579 31.5324 108.094 31.7646C108.468 31.9339 108.821 31.9391 109.223 31.915C109.861 31.6736 110.291 31.3639 110.58 30.7246C110.882 30.057 110.877 29.2519 110.591 28.5801C110.371 28.0634 109.979 27.647 109.451 27.4424C109.121 27.315 108.79 27.2982 108.442 27.335Z" fill="white"/>
  <path d="M45.9824 22.5632C47.1893 26.2831 48.734 29.9013 49.9111 33.6316L47.6865 33.6345C47.4258 32.8381 47.1742 31.9372 46.7764 31.2009C46.5164 31.0898 46.2086 31.1271 45.9307 31.1306C44.8578 31.1412 43.7846 31.1373 42.7119 31.1189C42.3751 31.9409 42.1036 32.7868 41.8369 33.6335L39.5713 33.6316C40.7545 29.9182 42.1651 26.2523 43.4424 22.5681C44.2874 22.5865 45.137 22.5666 45.9824 22.5632ZM44.7148 25.3132C44.2464 26.6448 43.8096 27.9946 43.2969 29.3093L44.9258 29.3083L46.1914 29.2937C46.0133 28.7922 44.9806 25.5354 44.7148 25.3132Z" fill="white"/>
  <path d="M92.8828 22.5869L95.0104 22.5997C94.9813 25.1642 95.004 27.7323 95.0033 30.2967C95.0026 31.3551 95.1102 32.512 94.9912 33.5563L94.8744 33.6363H92.8807L92.8765 28.9005C91.2828 28.8559 89.677 28.8956 88.0819 28.8977L88.0826 33.6384L85.9424 33.6342L85.9509 22.5899L88.0826 22.5948L88.0841 27.1107H92.8857L92.8828 22.5869Z" fill="white"/>
  <path d="M96.2896 25.6482C96.9955 25.6684 97.7035 25.6609 98.4093 25.6648C98.4008 26.7935 98.2224 29.9115 98.4957 30.8446C98.6033 31.2128 98.8185 31.5498 99.1669 31.7289C99.6908 31.998 100.223 31.8422 100.744 31.6595C100.974 31.4018 101.173 31.1604 101.287 30.8277C101.66 29.7395 101.461 26.9464 101.455 25.6519C102.128 25.6699 102.802 25.6558 103.475 25.6523C103.459 26.4276 103.472 27.2056 103.471 27.9815L103.481 33.6327C102.82 33.6426 102.159 33.6377 101.498 33.6179L101.437 33.5464C101.447 33.3786 101.449 33.2419 101.42 33.0748C100.8 33.3432 100.249 33.7503 99.5442 33.7644C98.7272 33.7807 97.8408 33.5272 97.2546 32.9396C96.81 32.495 96.5388 31.8967 96.3993 31.29C96.0991 29.9844 96.2761 27.093 96.2896 25.6482Z" fill="white"/>
  <path d="M67.6956 25.4257C68.7505 25.3431 69.8501 25.4176 70.7025 26.1282C71.3 26.6258 71.4933 27.2233 71.5577 27.966L69.6511 27.9638C69.5414 27.7599 69.4316 27.5235 69.2596 27.3642C68.9849 27.1107 68.587 26.979 68.2153 26.9988C67.9264 27.0144 67.5576 27.1298 67.3777 27.3741C67.2687 27.5228 67.2085 27.6757 67.2503 27.8612C67.4669 28.8389 69.9527 28.7179 70.7442 29.2354C71.2476 29.5653 71.6342 30.1565 71.7461 30.7463C71.8579 31.3495 71.7142 31.9725 71.3503 32.466C70.7428 33.3035 69.8069 33.6044 68.8327 33.7538C67.9307 33.8083 66.885 33.5662 66.1628 33.0168C65.486 32.5014 65.2424 31.8691 65.1504 31.0549C65.7925 31.0564 66.4354 31.05 67.0775 31.0372C67.1151 31.1583 67.1568 31.2751 67.2177 31.387C67.4974 31.9031 68.056 32.0178 68.5735 32.17C68.9155 32.0914 69.3785 32.0037 69.6214 31.7275C69.7679 31.5605 69.8189 31.2709 69.7573 31.0585C69.5201 30.2415 67.1384 30.1452 66.3122 29.6368C65.823 29.3352 65.4633 28.8963 65.3331 28.3299C65.2155 27.8166 65.2601 27.2396 65.549 26.79C66.0701 25.9761 66.7894 25.6418 67.6956 25.4257Z" fill="white"/>
  <path d="M80.5262 25.4234C81.1266 25.3748 81.7149 25.3781 82.3004 25.5364C82.9758 25.7192 83.693 26.0965 84.0343 26.7362C84.1985 27.0428 84.3246 27.5943 84.2141 27.9348C83.6668 28.0531 82.9985 27.9731 82.4363 27.9667C82.3535 27.6884 82.2834 27.4739 82.0576 27.2813C81.7715 27.042 81.3998 26.9288 81.0288 26.9691C80.7386 26.9989 80.3655 27.1419 80.2033 27.4017C80.1063 27.5568 80.0667 27.7161 80.1276 27.8945C80.4787 28.9289 82.5836 28.6832 83.402 29.1505C83.9231 29.4485 84.3592 29.9724 84.5072 30.5587C84.6665 31.1881 84.561 31.8876 84.1978 32.4292C83.6555 33.2377 82.7939 33.5421 81.8848 33.7184C80.992 33.8289 79.9584 33.6391 79.2121 33.1244C78.4461 32.5963 78.216 31.9336 78.0439 31.0677L79.9555 31.0535C80.0716 31.3459 80.1771 31.5739 80.4249 31.7764C80.7549 32.0469 81.1464 32.1693 81.5719 32.1127C81.9018 32.0688 82.2268 31.9173 82.4243 31.6412C82.5532 31.4599 82.6176 31.2397 82.556 31.0196C82.3167 30.1693 80.2062 30.2224 79.3686 29.7714C78.8029 29.4662 78.3548 28.9593 78.1756 28.337C78.0234 27.8102 78.0871 27.2615 78.3654 26.7879C78.8277 26.0034 79.6759 25.6196 80.5262 25.4234Z" fill="white"/>
  <path d="M56.9955 23.4556C57.6299 23.4775 58.2692 23.464 58.9043 23.4667C58.8972 24.1833 58.9078 24.9 58.9354 25.6161L60.8187 25.6173L60.8145 27.2587L59.0211 27.258C59.0218 28.2909 58.7854 30.9558 59.2597 31.7537C59.63 32.0454 60.3691 31.9364 60.8187 31.9314L60.8123 33.2915C60.8166 33.4317 60.8159 33.5025 60.7444 33.625C60.4937 33.7453 60.2367 33.7722 59.9599 33.7743C59.2314 33.7807 58.2253 33.649 57.7014 33.1032C56.6493 32.0079 56.9856 28.7851 56.9906 27.2566L55.7754 27.2587L55.779 25.6135L56.9892 25.6217L56.9955 23.4556Z" fill="white"/>
  <path d="M73.367 23.4465L75.2403 23.4573C75.2262 24.1751 75.2559 24.8962 75.2693 25.6141L77.1831 25.6102L77.1802 27.2594L75.3791 27.2579C75.401 28.2414 75.1603 30.9877 75.6056 31.731C76.0843 32.0171 76.6839 31.9406 77.222 31.9392C77.2156 32.4128 77.2248 32.8879 77.227 33.3623L77.2043 33.5421C77.0188 33.7382 76.7335 33.7297 76.4807 33.7361C75.7111 33.7545 74.6484 33.6327 74.0905 33.0486C73.0491 31.9583 73.3733 28.7808 73.3825 27.2572L72.1011 27.2579C72.0848 26.7121 72.0912 26.1645 72.0869 25.6186L73.3634 25.6252L73.367 23.4465Z" fill="white"/>
  <path d="M32.9512 22.2197C33.0497 22.2148 33.1453 22.2134 33.2433 22.2276C33.5495 22.272 33.8512 22.4199 34.0199 22.6887C34.1988 22.974 34.2233 23.3538 34.2478 23.6842C34.3692 25.3195 34.279 27.0208 34.2786 28.6619C34.2782 30.0021 34.4267 31.8196 34.1779 33.1102C34.0996 33.5159 33.8305 33.7099 33.5084 33.9294C33.3857 33.9442 33.2573 33.9612 33.1335 33.9542C32.8571 33.9386 32.5952 33.8154 32.4164 33.6044C32.2396 33.3956 32.2447 32.9764 32.2291 32.7145C32.1167 30.8333 32.2117 28.892 32.2134 27.0052C32.2144 25.933 32.067 23.8805 32.2924 22.9237C32.3731 22.5814 32.6816 22.402 32.9512 22.2197Z" fill="white"/>
  <path d="M54.6727 25.5874L54.9419 25.5843C55.261 25.941 55.1025 27.0711 55.0923 27.5391C54.4182 27.532 53.7805 27.5051 53.2524 27.995C52.2614 28.914 52.5955 32.2819 52.5857 33.6335C52.0545 33.6285 51.0197 33.8225 50.6138 33.4848L50.5927 33.1499C50.6024 30.645 50.5394 28.1423 50.5554 25.6378C51.1984 25.6578 51.8436 25.6442 52.487 25.6407L52.4644 26.7468C52.5838 26.5755 52.7023 26.3921 52.8408 26.2359C53.3283 25.686 53.9895 25.6362 54.6727 25.5874Z" fill="white"/>
  <path d="M61.9891 25.6205L64.0097 25.6213L64.0147 33.6377L61.9707 33.6349L61.9891 25.6205Z" fill="white"/>
  <path d="M30.1281 24.8465C30.4599 24.9077 30.7534 25.0323 30.9468 25.3205C31.245 25.765 31.253 30.1204 31.1036 30.742C31.0219 31.0819 30.7279 31.2475 30.4492 31.4111C30.1299 31.392 29.7103 31.3636 29.4971 31.0868C29.1799 30.6755 29.2062 26.0465 29.3868 25.4661C29.4917 25.1288 29.8385 24.9862 30.1281 24.8465Z" fill="white"/>
  <path d="M62.8668 22.3177C63.4672 22.2472 64.0151 22.6668 64.1029 23.2648C64.1914 23.8628 63.7879 24.4225 63.1932 24.5283C62.7917 24.5995 62.3839 24.4471 62.1283 24.1304C61.872 23.8138 61.809 23.383 61.9627 23.0059C62.1163 22.6289 62.4625 22.3652 62.8668 22.3177Z" fill="white"/>
</svg>
